<svg width="20" height="23" viewBox="0 0 20 23" fill="none" xmlns="http://www.w3.org/2000/svg">
<path d="M18.9673 17.924C18.6195 18.7275 18.2077 19.4672 17.7307 20.1473C17.0805 21.0743 16.5481 21.716 16.1378 22.0724C15.5018 22.6573 14.8203 22.9569 14.0906 22.9739C13.5667 22.9739 12.935 22.8248 12.1995 22.5224C11.4617 22.2214 10.7837 22.0724 10.1637 22.0724C9.51346 22.0724 8.8161 22.2214 8.07018 22.5224C7.32313 22.8248 6.72132 22.9824 6.26119 22.998C5.56142 23.0278 4.86392 22.7198 4.16769 22.0724C3.72332 21.6848 3.16751 21.0204 2.50167 20.0791C1.78727 19.0739 1.19994 17.9084 0.73981 16.5795C0.247029 15.1442 0 13.7543 0 12.4087C0 10.8673 0.333063 9.5379 1.00018 8.42385C1.52448 7.52901 2.22198 6.82313 3.09496 6.30493C3.96794 5.78674 4.91119 5.52268 5.92699 5.50578C6.48281 5.50578 7.21169 5.67771 8.11746 6.0156C9.02068 6.35463 9.60063 6.52655 9.8549 6.52655C10.045 6.52655 10.6893 6.32552 11.7814 5.92474C12.8143 5.55306 13.686 5.39916 14.4001 5.45978C16.3352 5.61595 17.7889 6.37876 18.7558 7.75304C17.0251 8.80164 16.169 10.2703 16.1861 12.1544C16.2017 13.622 16.7341 14.8432 17.7804 15.8129C18.2546 16.2629 18.7841 16.6108 19.3733 16.8578C19.2456 17.2283 19.1107 17.5833 18.9673 17.924ZM14.5293 0.460131C14.5293 1.61039 14.1091 2.68439 13.2714 3.67847C12.2606 4.86024 11.0379 5.54312 9.71208 5.43536C9.69518 5.29737 9.68539 5.15213 9.68539 4.99951C9.68539 3.89526 10.1661 2.71349 11.0198 1.74724C11.446 1.25801 11.988 0.851218 12.6453 0.526715C13.3012 0.207053 13.9217 0.0302728 14.5051 0C14.5222 0.153772 14.5293 0.307554 14.5293 0.460116V0.460131Z" fill="#656874"/>
</svg>
