<svg width="10" height="10" viewBox="0 0 10 10" fill="none" xmlns="http://www.w3.org/2000/svg">
<path d="M8.40954 2.70378L1.33201 9.78131C1.18622 9.9271 1.00066 10 0.775348 10C0.550033 10 0.36448 9.9271 0.218688 9.78131C0.072896 9.63552 0 9.44997 0 9.22465C0 8.99934 0.072896 8.81378 0.218688 8.66799L7.29622 1.59046H1.25249C1.02717 1.59046 0.838304 1.51425 0.685885 1.36183C0.533466 1.20941 0.457256 1.02054 0.457256 0.795229C0.457256 0.569914 0.533466 0.381047 0.685885 0.228628C0.838304 0.0762094 1.02717 0 1.25249 0H9.20477C9.43009 0 9.61895 0.0762094 9.77137 0.228628C9.92379 0.381047 10 0.569914 10 0.795229V8.74751C10 8.97283 9.92379 9.1617 9.77137 9.31412C9.61895 9.46653 9.43009 9.54274 9.20477 9.54274C8.97946 9.54274 8.79059 9.46653 8.63817 9.31412C8.48575 9.1617 8.40954 8.97283 8.40954 8.74751V2.70378Z" fill="#656874"/>
</svg>
