<svg width="14" height="15" viewBox="0 0 14 15" fill="none" xmlns="http://www.w3.org/2000/svg">
<path d="M6.13636 1.36364L2.09659 3.69886L6.13636 6.03409L10.1761 3.69886L6.13636 1.36364ZM0 9.52841V4.10795C0 3.85795 0.0596591 3.63068 0.178977 3.42614C0.298295 3.22159 0.465909 3.05682 0.681818 2.93182L5.45455 0.1875C5.56818 0.130682 5.67898 0.0852273 5.78693 0.0511364C5.89489 0.0170455 6.01136 0 6.13636 0C6.26136 0 6.38068 0.0170455 6.49432 0.0511364C6.60796 0.0852273 6.71591 0.130682 6.81818 0.1875L11.5909 2.93182C11.8068 3.05682 11.9744 3.22159 12.0938 3.42614C12.2131 3.63068 12.2727 3.85795 12.2727 4.10795V6.13636C12.2727 6.32955 12.2074 6.49148 12.0767 6.62216C11.946 6.75284 11.7841 6.81818 11.5909 6.81818C11.3977 6.81818 11.2358 6.75284 11.1051 6.62216C10.9744 6.49148 10.9091 6.32955 10.9091 6.13636V4.84091L6.80114 7.21023C6.58523 7.33523 6.35796 7.39773 6.11932 7.39773C5.88068 7.39773 5.65341 7.33523 5.4375 7.21023L1.36364 4.84091V9.51136L5.11364 11.6932C5.21591 11.75 5.2983 11.8295 5.3608 11.9318C5.4233 12.0341 5.45455 12.1477 5.45455 12.2727C5.45455 12.5341 5.34091 12.7301 5.11364 12.8608C4.88636 12.9915 4.65909 12.9943 4.43182 12.8693L0.681818 10.7045C0.465909 10.5795 0.298295 10.4148 0.178977 10.2102C0.0596591 10.0057 0 9.77841 0 9.52841ZM10.2273 15C9.28409 15 8.48011 14.6676 7.81534 14.0028C7.15057 13.3381 6.81818 12.5341 6.81818 11.5909C6.81818 10.6477 7.15057 9.84375 7.81534 9.17898C8.48011 8.5142 9.28409 8.18182 10.2273 8.18182C11.1705 8.18182 11.9744 8.5142 12.6392 9.17898C13.304 9.84375 13.6364 10.6477 13.6364 11.5909C13.6364 12.5341 13.304 13.3381 12.6392 14.0028C11.9744 14.6676 11.1705 15 10.2273 15ZM9.88636 12.3409L8.89773 11.3523C8.82955 11.2841 8.75 11.25 8.65909 11.25C8.56818 11.25 8.48864 11.2841 8.42046 11.3523C8.35227 11.4205 8.31818 11.5 8.31818 11.5909C8.31818 11.6818 8.35227 11.7614 8.42046 11.8295L9.75 13.1591C9.81818 13.2273 9.89205 13.2756 9.97159 13.304C10.0511 13.3324 10.1364 13.3466 10.2273 13.3466C10.3182 13.3466 10.4034 13.3324 10.483 13.304C10.5625 13.2756 10.6364 13.2273 10.7045 13.1591L12.0341 11.8295C12.1023 11.7614 12.1364 11.6818 12.1364 11.5909C12.1364 11.5 12.1023 11.4205 12.0341 11.3523C11.9659 11.2841 11.8864 11.25 11.7955 11.25C11.7045 11.25 11.625 11.2841 11.5568 11.3523L10.5682 12.3409V9.88636C10.5682 9.79545 10.5341 9.71591 10.4659 9.64773C10.3977 9.57955 10.3182 9.54545 10.2273 9.54545C10.1364 9.54545 10.0568 9.57955 9.98864 9.64773C9.92046 9.71591 9.88636 9.79545 9.88636 9.88636V12.3409Z" fill="#656874"/>
</svg>
