<svg width="23" height="23" viewBox="0 0 23 23" fill="none" xmlns="http://www.w3.org/2000/svg">
<g clip-path="url(#clip0_380_1637)">
<path d="M11.5 2.0709C14.5727 2.0709 14.9365 2.08437 16.1449 2.13828C17.268 2.1877 17.8744 2.37637 18.2787 2.53359C18.8133 2.74023 19.1996 2.9918 19.5994 3.3916C20.0037 3.7959 20.2508 4.17773 20.4574 4.7123C20.6146 5.1166 20.8033 5.72754 20.8527 6.84609C20.9066 8.05898 20.9201 8.42285 20.9201 11.491C20.9201 14.5637 20.9066 14.9275 20.8527 16.1359C20.8033 17.259 20.6146 17.8654 20.4574 18.2697C20.2508 18.8043 19.9992 19.1906 19.5994 19.5904C19.1951 19.9947 18.8133 20.2418 18.2787 20.4484C17.8744 20.6057 17.2635 20.7943 16.1449 20.8438C14.932 20.8977 14.5682 20.9111 11.5 20.9111C8.42734 20.9111 8.06348 20.8977 6.85508 20.8438C5.73203 20.7943 5.12559 20.6057 4.72129 20.4484C4.18672 20.2418 3.80039 19.9902 3.40059 19.5904C2.99629 19.1861 2.74922 18.8043 2.54258 18.2697C2.38535 17.8654 2.19668 17.2545 2.14727 16.1359C2.09336 14.923 2.07988 14.5592 2.07988 11.491C2.07988 8.41836 2.09336 8.05449 2.14727 6.84609C2.19668 5.72305 2.38535 5.1166 2.54258 4.7123C2.74922 4.17773 3.00078 3.79141 3.40059 3.3916C3.80488 2.9873 4.18672 2.74023 4.72129 2.53359C5.12559 2.37637 5.73652 2.1877 6.85508 2.13828C8.06348 2.08437 8.42734 2.0709 11.5 2.0709ZM11.5 0C8.37793 0 7.98711 0.0134766 6.76074 0.0673828C5.53887 0.121289 4.69883 0.318945 3.97109 0.601953C3.21191 0.898437 2.56953 1.28926 1.93164 1.93164C1.28926 2.56953 0.898438 3.21191 0.601953 3.9666C0.318945 4.69883 0.121289 5.53437 0.0673828 6.75625C0.0134766 7.98711 0 8.37793 0 11.5C0 14.6221 0.0134766 15.0129 0.0673828 16.2393C0.121289 17.4611 0.318945 18.3012 0.601953 19.0289C0.898438 19.7881 1.28926 20.4305 1.93164 21.0684C2.56953 21.7062 3.21191 22.1016 3.9666 22.3936C4.69883 22.6766 5.53438 22.8742 6.75625 22.9281C7.98262 22.982 8.37344 22.9955 11.4955 22.9955C14.6176 22.9955 15.0084 22.982 16.2348 22.9281C17.4566 22.8742 18.2967 22.6766 19.0244 22.3936C19.7791 22.1016 20.4215 21.7062 21.0594 21.0684C21.6973 20.4305 22.0926 19.7881 22.3846 19.0334C22.6676 18.3012 22.8652 17.4656 22.9191 16.2437C22.973 15.0174 22.9865 14.6266 22.9865 11.5045C22.9865 8.38242 22.973 7.9916 22.9191 6.76523C22.8652 5.54336 22.6676 4.70332 22.3846 3.97559C22.1016 3.21191 21.7107 2.56953 21.0684 1.93164C20.4305 1.29375 19.7881 0.898438 19.0334 0.606445C18.3012 0.323437 17.4656 0.125781 16.2437 0.071875C15.0129 0.0134766 14.6221 0 11.5 0Z" fill="#656874"/>
<path d="M11.5 5.59277C8.23867 5.59277 5.59277 8.23867 5.59277 11.5C5.59277 14.7613 8.23867 17.4072 11.5 17.4072C14.7613 17.4072 17.4072 14.7613 17.4072 11.5C17.4072 8.23867 14.7613 5.59277 11.5 5.59277ZM11.5 15.3318C9.38418 15.3318 7.66816 13.6158 7.66816 11.5C7.66816 9.38418 9.38418 7.66816 11.5 7.66816C13.6158 7.66816 15.3318 9.38418 15.3318 11.5C15.3318 13.6158 13.6158 15.3318 11.5 15.3318Z" fill="#656874"/>
<path d="M19.0199 5.35908C19.0199 6.12276 18.4 6.73819 17.6408 6.73819C16.8771 6.73819 16.2617 6.11826 16.2617 5.35908C16.2617 4.59541 16.8816 3.97998 17.6408 3.97998C18.4 3.97998 19.0199 4.5999 19.0199 5.35908Z" fill="#656874"/>
</g>
<defs>
<clipPath id="clip0_380_1637">
<rect width="23" height="23" fill="white"/>
</clipPath>
</defs>
</svg>
