<svg width="23" height="23" viewBox="0 0 23 23" fill="none" xmlns="http://www.w3.org/2000/svg">
<path d="M21.2975 0H1.69805C0.75918 0 0 0.741211 0 1.65762V21.3379C0 22.2543 0.75918 23 1.69805 23H21.2975C22.2363 23 23 22.2543 23 21.3424V1.65762C23 0.741211 22.2363 0 21.2975 0ZM6.82363 19.5994H3.40957V8.62051H6.82363V19.5994ZM5.1166 7.12461C4.02051 7.12461 3.13555 6.23965 3.13555 5.14805C3.13555 4.05645 4.02051 3.17148 5.1166 3.17148C6.2082 3.17148 7.09316 4.05645 7.09316 5.14805C7.09316 6.23516 6.2082 7.12461 5.1166 7.12461ZM19.5994 19.5994H16.1898V14.2627C16.1898 12.9914 16.1674 11.3518 14.4154 11.3518C12.641 11.3518 12.3715 12.7398 12.3715 14.1729V19.5994H8.96641V8.62051H12.2367V10.1209H12.2816C12.7354 9.2584 13.8494 8.34648 15.507 8.34648C18.9615 8.34648 19.5994 10.6195 19.5994 13.5754V19.5994Z" fill="#656874"/>
</svg>
