<svg xmlns="http://www.w3.org/2000/svg" width="50" height="50" viewBox="0 0 50 50" fill="none">
<rect x="0.5" y="0.5" width="49" height="49" rx="9.5" fill="url(#paint0_linear_827_80)" stroke="#EAECF0"/>
<path d="M35.6082 23.3462C35.6082 16.2375 30.327 10 24.3049 10C18.2828 10 13 16.2358 13 23.3462C13 30.6345 18.8803 31.0069 23.558 31.0259V33.2702C22.8755 33.3174 22.2023 33.429 21.5622 33.6067C20.7129 33.8458 19.947 34.1887 19.2786 34.6306C18.5929 35.0851 18.0502 35.623 17.6665 36.2238C17.6492 36.2521 17.6461 36.282 17.6335 36.3103C16.7087 36.4141 15.9852 37.191 15.9852 38.1441C15.9852 39.168 16.8172 40 17.8395 40C18.8618 40 19.6938 39.168 19.6938 38.1441C19.6938 37.6094 19.4626 37.1297 19.0977 36.7916C19.3556 36.4581 19.6906 36.1515 20.1027 35.8778C20.639 35.5239 21.2665 35.244 21.9648 35.0474C22.4744 34.9058 23.0107 34.8162 23.558 34.7722V36.4503C22.9069 36.7381 22.4508 37.3892 22.4508 38.1441C22.4508 39.168 23.2828 40 24.3035 40C25.3258 40 26.1562 39.168 26.1562 38.1441C26.1562 37.3877 25.7001 36.7381 25.049 36.4503V34.7722C25.5948 34.8162 26.1311 34.9058 26.6391 35.0474C27.3405 35.244 27.968 35.5239 28.5012 35.8762C28.9164 36.1515 29.2514 36.4597 29.5093 36.7916C29.146 37.1297 28.9132 37.6094 28.9132 38.1441C28.9132 39.168 29.7452 40 30.7675 40C31.7898 40 32.6218 39.168 32.6218 38.1441C32.6218 37.1926 31.8968 36.4141 30.972 36.3103C30.9594 36.282 30.9563 36.2521 30.9405 36.2254C30.5568 35.6246 30.0142 35.0867 29.3253 34.6306C28.6616 34.1902 27.8941 33.8474 27.0417 33.6067C26.4047 33.429 25.7316 33.3174 25.049 33.2702V31.0259C29.7279 31.007 35.6086 30.6327 35.6086 23.3462H35.6082ZM17.8375 38.5042C17.6394 38.5042 17.4758 38.3422 17.4758 38.1425C17.4758 37.9443 17.6378 37.7823 17.8375 37.7823C18.0357 37.7823 18.1993 37.9443 18.1993 38.1425C18.1993 38.3422 18.0373 38.5042 17.8375 38.5042ZM30.7702 38.5042C30.5721 38.5042 30.4085 38.3422 30.4085 38.1425C30.4085 37.9443 30.5705 37.7823 30.7702 37.7823C30.9684 37.7823 31.132 37.9443 31.132 38.1425C31.132 38.3422 30.97 38.5042 30.7702 38.5042ZM19.775 26.8833C18.1031 26.6033 15.8132 26.2211 16.0271 22.6259C16.0507 22.2139 16.4124 21.8946 16.8166 21.9245C17.2286 21.948 17.5432 22.3035 17.5181 22.714C17.3844 24.9662 18.3202 25.1234 20.0219 25.4097C20.176 25.4364 20.3286 25.46 20.4827 25.4899C21.5569 25.6833 22.8056 25.7777 24.3045 25.7777C25.8018 25.7777 27.0521 25.6833 28.1263 25.4899C28.304 25.4568 28.4849 25.4285 28.6626 25.4034C29.2948 25.3059 29.8909 25.2162 30.3722 24.9111C30.7072 24.6988 30.9572 23.4814 30.9572 22.5331C30.9572 22.121 31.2922 21.786 31.7043 21.786C32.1179 21.786 32.4514 22.121 32.4514 22.5331C32.4514 23.0049 32.39 25.4034 31.1696 26.174C30.4241 26.6443 29.6094 26.7701 28.8891 26.8786C28.7239 26.9038 28.5556 26.9289 28.3921 26.9588C27.2298 27.1696 25.893 27.2702 24.3062 27.2702C22.7177 27.2702 21.3809 27.1696 20.2188 26.9588C20.0694 26.9337 19.9212 26.9084 19.775 26.8833ZM24.3045 38.5042C24.1063 38.5042 23.9443 38.3422 23.9443 38.1425C23.9443 37.9443 24.1063 37.7823 24.3045 37.7823C24.5027 37.7823 24.6647 37.9443 24.6647 38.1425C24.6647 38.3422 24.5027 38.5042 24.3045 38.5042Z" fill="black"/>
<defs>
<linearGradient id="paint0_linear_827_80" x1="25" y1="0" x2="25" y2="50" gradientUnits="userSpaceOnUse">
<stop stop-color="white"/>
<stop offset="1" stop-color="#FCFBFB"/>
</linearGradient>
</defs>
</svg>