<svg width="20" height="20" viewBox="0 0 20 20" fill="none" xmlns="http://www.w3.org/2000/svg">
<path d="M14.8403 0.229259C15.0217 0.24555 15.101 0.467107 14.9707 0.596348L5.93462 9.63239C5.83254 9.73453 5.75945 9.86197 5.72284 10.0016L4.63677 14.1613C4.60092 14.2987 4.60164 14.4432 4.63887 14.5803C4.6761 14.7174 4.74853 14.8424 4.84898 14.9428C4.94943 15.0433 5.07441 15.1157 5.21151 15.1529C5.34861 15.1901 5.49306 15.1909 5.63052 15.155L9.78905 14.069C9.92883 14.032 10.0563 13.9585 10.1583 13.8561L19.3225 4.69189C19.3512 4.66246 19.3877 4.64185 19.4277 4.63252C19.4677 4.62318 19.5096 4.62551 19.5483 4.63922C19.587 4.65293 19.621 4.67746 19.6463 4.70989C19.6715 4.74232 19.6869 4.7813 19.6907 4.82222C20.0719 8.46012 20.0501 12.129 19.6255 15.7621C19.3833 17.8311 17.7206 19.4547 15.6592 19.6861C11.8837 20.1046 8.07345 20.1046 4.29792 19.6861C2.23549 19.4547 0.572727 17.8311 0.330535 15.7621C-0.117218 11.9338 -0.117218 8.06627 0.330535 4.23792C0.572727 2.16788 2.23549 0.544217 4.29792 0.313972C7.79995 -0.0741245 11.3325 -0.10251 14.8403 0.229259Z" fill="#373737"/>
<path d="M16.3022 1.56854C16.3274 1.54325 16.3574 1.52319 16.3903 1.5095C16.4233 1.49582 16.4587 1.48877 16.4944 1.48877C16.5301 1.48877 16.5655 1.49582 16.5985 1.5095C16.6315 1.52319 16.6614 1.54325 16.6866 1.56854L18.2223 3.10532C18.2731 3.15621 18.3016 3.22514 18.3016 3.29701C18.3016 3.36887 18.2731 3.4378 18.2223 3.4887L9.21561 12.4976C9.18127 12.5316 9.13856 12.5559 9.0918 12.5682L7.01308 13.1112C6.96726 13.1232 6.91911 13.1229 6.87341 13.1105C6.82771 13.0981 6.78605 13.074 6.75257 13.0405C6.71908 13.007 6.69494 12.9653 6.68253 12.9196C6.67012 12.8739 6.66988 12.8258 6.68183 12.78L7.22486 10.7012C7.23695 10.6544 7.26132 10.6117 7.29546 10.5774L16.3022 1.56854Z" fill="#373737"/>
</svg>
