<svg width="23" height="20" viewBox="0 0 23 20" fill="none" xmlns="http://www.w3.org/2000/svg">
<path d="M11.4974 2.46453C9.71125 2.46491 7.96534 2.99476 6.48027 3.9871C4.99521 4.97945 3.83764 6.38976 3.15385 8.0398C2.47007 9.68983 2.29078 11.5055 2.63862 13.2575C2.98646 15.0094 3.84583 16.6188 5.10812 17.8825C5.33899 18.1138 5.46852 18.4273 5.46821 18.7542C5.46791 19.081 5.33778 19.3943 5.10647 19.6252C4.87516 19.856 4.56161 19.9856 4.2348 19.9853C3.90798 19.9849 3.59468 19.8548 3.3638 19.6235C1.75692 18.0152 0.662938 15.9665 0.220159 13.7365C-0.222621 11.5065 0.00567582 9.19535 0.876191 7.09509C1.74671 4.99483 3.22036 3.19981 5.11086 1.93693C7.00136 0.674044 9.22385 0 11.4974 0C13.7709 0 15.9934 0.674044 17.8839 1.93693C19.7744 3.19981 21.248 4.99483 22.1185 7.09509C22.989 9.19535 23.2173 11.5065 22.7746 13.7365C22.3318 15.9665 21.2378 18.0152 19.6309 19.6235C19.5173 19.7412 19.3815 19.8351 19.2312 19.8998C19.0809 19.9644 18.9193 19.9985 18.7557 19.9999C18.5922 20.0014 18.43 19.9704 18.2785 19.9085C18.1271 19.8466 17.9895 19.7552 17.8738 19.6396C17.7581 19.524 17.6666 19.3865 17.6046 19.2351C17.5425 19.0838 17.5113 18.9216 17.5126 18.758C17.514 18.5945 17.5479 18.4328 17.6124 18.2825C17.6769 18.1322 17.7706 17.9962 17.8882 17.8825C19.1506 16.6187 20.01 15.0091 20.3578 13.257C20.7056 11.505 20.5262 9.68914 19.8422 8.03904C19.1582 6.38893 18.0004 4.97864 16.5151 3.98642C15.0297 2.9942 13.2836 2.46459 11.4974 2.46453ZM11.4974 9.03445C10.8439 9.03445 10.2173 9.29402 9.75525 9.75606C9.29321 10.2181 9.03364 10.8448 9.03364 11.4982C9.03364 12.1516 9.29321 12.7782 9.75525 13.2403C10.2173 13.7023 10.8439 13.9619 11.4974 13.9619C12.1508 13.9619 12.7774 13.7023 13.2395 13.2403C13.7015 12.7782 13.9611 12.1516 13.9611 11.4982C13.9611 10.8448 13.7015 10.2181 13.2395 9.75606C12.7774 9.29402 12.1508 9.03445 11.4974 9.03445ZM6.98054 11.4982C6.98052 10.7555 7.16362 10.0243 7.51363 9.3693C7.86363 8.71429 8.36975 8.15569 8.98716 7.74296C9.60457 7.33023 10.3142 7.07611 11.0533 7.00309C11.7923 6.93008 12.538 7.04042 13.2242 7.32436C13.9105 7.60829 14.5161 8.05706 14.9875 8.63091C15.4589 9.20477 15.7816 9.88601 15.9269 10.6143C16.0722 11.3426 16.0357 12.0955 15.8206 12.8063C15.6054 13.5172 15.2184 14.164 14.6936 14.6895C14.4628 14.9208 14.3332 15.2344 14.3335 15.5612C14.3338 15.888 14.464 16.2013 14.6953 16.4322C14.9266 16.6631 15.2401 16.7926 15.5669 16.7923C15.8938 16.792 16.2071 16.6618 16.4379 16.4305C17.4131 15.4539 18.0769 14.21 18.3454 12.8562C18.6139 11.5024 18.475 10.0994 17.9463 8.82452C17.4177 7.54962 16.523 6.46004 15.3753 5.69348C14.2275 4.92692 12.8783 4.51778 11.4982 4.51778C10.118 4.51778 8.76883 4.92692 7.62111 5.69348C6.4734 6.46004 5.57868 7.54962 5.05003 8.82452C4.52137 10.0994 4.38251 11.5024 4.65099 12.8562C4.91948 14.21 5.58325 15.4539 6.55843 16.4305C6.6712 16.5516 6.8072 16.6486 6.95831 16.716C7.10941 16.7833 7.27253 16.8195 7.43794 16.8224C7.60334 16.8253 7.76763 16.7949 7.92102 16.733C8.07441 16.671 8.21375 16.5788 8.33072 16.4618C8.4477 16.3448 8.53992 16.2055 8.60187 16.0521C8.66383 15.8987 8.69425 15.7344 8.69134 15.569C8.68842 15.4036 8.65222 15.2405 8.58489 15.0894C8.51756 14.9383 8.42048 14.8023 8.29945 14.6895C7.88026 14.2706 7.54795 13.7731 7.32161 13.2254C7.09527 12.6778 6.97936 12.0908 6.98054 11.4982Z" fill="#373737"/>
</svg>
