<svg width="20" height="20" viewBox="0 0 20 20" fill="none" xmlns="http://www.w3.org/2000/svg">
<path fill-rule="evenodd" clip-rule="evenodd" d="M12.2405 0.152C11.8705 -4.47035e-08 11.4005 0 10.4615 0C9.5225 0 9.0525 -4.47035e-08 8.6825 0.152C8.18995 0.354211 7.79788 0.743765 7.5925 1.235C7.4985 1.458 7.4625 1.719 7.4475 2.098C7.44083 2.3726 7.36423 2.64097 7.22494 2.87772C7.08566 3.11447 6.88829 3.31178 6.6515 3.451C6.41024 3.5851 6.13904 3.65615 5.86302 3.65754C5.58701 3.65894 5.3151 3.59065 5.0725 3.459C4.7345 3.281 4.4895 3.183 4.2475 3.151C3.71805 3.08148 3.18257 3.2238 2.7575 3.547C2.4395 3.789 2.2045 4.193 1.7355 5C1.2655 5.807 1.0315 6.21 0.978497 6.605C0.908497 7.131 1.0525 7.663 1.3785 8.084C1.5265 8.276 1.7355 8.437 2.0585 8.639C2.5355 8.936 2.8415 9.442 2.8415 10C2.8415 10.558 2.5355 11.064 2.0595 11.36C1.7355 11.563 1.5265 11.724 1.3775 11.916C1.21658 12.1239 1.09847 12.3617 1.02998 12.6156C0.961497 12.8694 0.943998 13.1343 0.978497 13.395C1.0315 13.789 1.2655 14.193 1.7355 15C2.2055 15.807 2.4395 16.21 2.7575 16.453C3.1815 16.776 3.7175 16.918 4.2475 16.849C4.4895 16.817 4.7345 16.719 5.0725 16.541C5.31522 16.4092 5.58731 16.3408 5.86352 16.3422C6.13974 16.3436 6.41112 16.4147 6.6525 16.549C7.1385 16.829 7.4265 17.344 7.4475 17.902C7.4625 18.282 7.4985 18.542 7.5925 18.765C7.7965 19.255 8.1885 19.645 8.6825 19.848C9.0525 20 9.5225 20 10.4615 20C11.4005 20 11.8705 20 12.2405 19.848C12.733 19.6458 13.1251 19.2562 13.3305 18.765C13.4245 18.542 13.4605 18.282 13.4755 17.902C13.4955 17.344 13.7845 16.828 14.2715 16.549C14.5128 16.4149 14.784 16.3439 15.06 16.3425C15.336 16.3411 15.6079 16.4093 15.8505 16.541C16.1885 16.719 16.4335 16.817 16.6755 16.849C17.2055 16.919 17.7415 16.776 18.1655 16.453C18.4835 16.211 18.7185 15.807 19.1875 15C19.6575 14.193 19.8915 13.79 19.9445 13.395C19.9789 13.1343 19.9612 12.8693 19.8925 12.6155C19.8239 12.3616 19.7056 12.1239 19.5445 11.916C19.3965 11.724 19.1875 11.563 18.8645 11.361C18.3875 11.064 18.0815 10.558 18.0815 10C18.0815 9.442 18.3875 8.936 18.8635 8.64C19.1875 8.437 19.3965 8.276 19.5455 8.084C19.7064 7.87606 19.8245 7.63829 19.893 7.38443C19.9615 7.13057 19.979 6.86566 19.9445 6.605C19.8915 6.211 19.6575 5.807 19.1875 5C18.7175 4.193 18.4835 3.79 18.1655 3.547C17.7404 3.2238 17.2049 3.08148 16.6755 3.151C16.4335 3.183 16.1885 3.281 15.8505 3.459C15.6078 3.59083 15.3357 3.65922 15.0595 3.65782C14.7833 3.65642 14.5119 3.58528 14.2705 3.451C14.0339 3.31166 13.8367 3.11429 13.6976 2.87755C13.5585 2.64081 13.4821 2.37251 13.4755 2.098C13.4605 1.718 13.4245 1.458 13.3305 1.235C13.2289 0.991736 13.0803 0.770883 12.8932 0.585058C12.7062 0.399233 12.4844 0.252078 12.2405 0.152ZM10.4615 13C12.1315 13 13.4845 11.657 13.4845 10C13.4845 8.343 12.1305 7 10.4615 7C8.7915 7 7.4385 8.343 7.4385 10C7.4385 11.657 8.7925 13 10.4615 13Z" fill="#373737"/>
</svg>
